<svg xmlns="http://www.w3.org/2000/svg" enable-background="new 0 0 50 50" viewBox="0 0 50 50" id="Pirate"><path d="M25.4114 9.5161c1.7874 0 3.2044-1.3358 1.86-4.81-1.1376-.6704-2.5325-.6837-3.71-.02C22.2034 8.1717 23.5791 9.5161 25.4114 9.5161zM38.6314 22.9861v-.02c-.19-.79-.45-1.55-.79-2.28-.01 0-.01 0-.01 0-.22-.49-.44-.91-.67-1.27-2.08-3.23-4.72-1.79-8.03-1.23-2.47.42-4.97.42-7.44 0-3.29-.55-5.74-1.75-7.7 1.39-.07.12-.15.25-.23.39-.07.14-.15.28-.22.43-.07.15-.15.31-.22.48-.37.81-.64 1.66-.81 2.55C25.2014 16.2161 38.6314 22.9861 38.6314 22.9861z" fill="#0d8df1" class="color000000 svgShape"></path><path d="M38.8514,24.2061l-0.67-0.33c-0.06-0.03-5.61-2.77-12.77-2.77c-4.5,0-8.68,1.07-12.41,3.19l-0.67,0.38
		c-0.03,0.35-0.04,0.7-0.04,1.06c0,2.97,1.07,5.69,2.88,7.86c0,0-1.69,3.67,0,4.23c1.71,0.56,5.08,2.03,5.08,2.03v2.04l1.67,0.47
		l0.46-0.68l0.14,0.89l2.94,0.36l0.17-0.7l0.18,0.7l2.6-0.29v-0.96l0.55,0.92l2.05-0.7599v-1.9c0,0,6.32-1.61,5.89-3.55
		c-0.41-1.83-0.55-3.01-0.58-3.13c1.66-2.1,2.63-4.71,2.63-7.53C38.9514,25.2161,38.9214,24.7061,38.8514,24.2061z M19.8125,32.7381
		c-1.9288,0-3.4924-0.938-3.4924-2.095c0-1.157,1.5636-2.856,3.4924-2.856s3.4925,1.6989,3.4925,2.856
		C23.305,31.8002,21.7413,32.7381,19.8125,32.7381z M27.4804,36.179c0,0-0.5289-0.7578-1.8628-0.8288
		c-1.334,0.071-1.8589,0.8288-1.8589,0.8288c-0.667-1.9378,1.8589-5.7701,1.8589-5.7701S28.1434,34.2412,27.4804,36.179z
		 M31.4253,32.7381c-1.9288,0-3.4925-0.938-3.4925-2.095c0-1.157,1.5637-2.856,3.4925-2.856s3.4924,1.6989,3.4924,2.856
		C34.9178,31.8002,33.3542,32.7381,31.4253,32.7381z" fill="#0d8df1" class="color000000 svgShape"></path><path d="M30.5474 43.8471c-2.964 1.8522-6.7897 1.8522-9.7537 0-.8034-.5021-1.6006-1.1639-2.2983-2.0361 0 0-.7053 6.0077 5.7966 7.0784.9113.1501 1.8458.1501 2.7571 0 6.5019-1.0707 5.7966-7.0784 5.7966-7.0784C32.1481 42.6832 31.3509 43.345 30.5474 43.8471zM11.3314 24.5861l-.02-.49c-.25.31-.42.77-.38 1.42 0 0-3.3799 1.78-4.81 6.46 0 0-.79 1.86-1.97 2.85-.29.25-.44.39-.49.44.12-.07.47-.34.47-.34s4.19-.63 6.03-4.59c0 0-.17 3.55-1.06 5.14.3-.32 2.15-2.48 3.04-5.06-.56-1.48-.85-3.0601-.85-4.6801C11.2914 25.3461 11.3014 24.9661 11.3314 24.5861zM29.3556 16.9576c0 0 0 0-.0308 0-.0308-.0356-.0925-.0712-.0925-.0712s0 0-.0308 0-.0308 0-.0616 0c-.0616 0-.0924 0-.1541-.0354h-.092c-.0308 0-.0925-.0356-.1229-.0356h-.0924c-.0308-.0356-.0925-.0356-.1233-.0356-.0308-.0356-.0616-.0356-.0924-.0356-.0308-.0356-.0925-.0356-.1232-.0356-.0308-.0356-.0616-.0356-.0925-.0356-.0308-.0354-.092-.0354-.1229-.071-.0308 0-.0616 0-.0925-.0356-.0305 0-.092-.0356-.1229-.0356-.0308-.0356-.0616-.0356-.0925-.0356-.0616-.0356-.0924-.0712-.1232-.0712s-.0308 0-.0308 0c-.1232 0-.2462.0712-.4307.2491-.2157.178-.2773-.1066-.2773-.1066.1541.1066.2465-.1425.2465-.1425s-.0308 0-.0308-.0353c-.1684-.0244-.8902-.1871-1.7638-.5664-.8736.3793-1.5955.5421-1.7639.5664 0 .0353-.0308.0353-.0308.0353s.0925.2491.2465.1425c0 0-.0616.2847-.2773.1066-.1845-.1779-.3074-.2491-.4306-.2491 0 0 0 0-.0308 0s-.0616.0356-.1233.0712c-.0308 0-.0616 0-.0924.0356-.0308 0-.0925.0356-.1229.0356-.0308.0356-.0616.0356-.0925.0356-.0308.0356-.092.0356-.1229.071-.0308 0-.0616 0-.0925.0356-.0308 0-.0924 0-.1232.0356-.0308 0-.0616 0-.0925.0356-.0308 0-.0924 0-.1232.0356h-.0925c-.0304 0-.092.0356-.1229.0356h-.092c-.0616.0354-.0925.0354-.1541.0354-.0308 0-.0308 0-.0616 0s-.0308 0-.0308 0-.0616.0356-.0925.0712c-.0308 0-.0308 0-.0308 0-.0308.0356-.0924.0712-.1232.1069v.0303c.1783.0336.3425.0734.5277.1013 1.17.2 2.37.31 3.55.31s2.38-.11 3.55-.31c.1805-.0301.3422-.0709.5175-.1053v-.0264C29.4481 17.0288 29.3865 16.9932 29.3556 16.9576z" fill="#0d8df1" class="color000000 svgShape"></path><path d="M44.1114,14.2161c0,0-4.01-2.18-4.07-2.19c-0.08-0.03-2.57-0.74-3.74-2.88c-1.1801-2.13-1.89-7.88-7.3701-8.14
		c0,0-2.36-0.16-1.85,0.95c0.46,0.96,3.58,6.08,0.2,8.06c-1.14,0.67-2.61,0.67-3.74,0c-3.38-1.98-0.26-7.1,0.19-8.06
		c0.51-1.11-1.85-0.95-1.85-0.95c-5.48,0.26-6.19,6.01-7.37,8.14c-1.17,2.14-3.66,2.85-3.74,2.88c-0.06,0.01-4.07,2.19-4.07,2.19
		s-2.88,1.5-2.08,3.6c0.61,1.64,5.52,2.58,7.6801,2.91c0.03-0.09,0.0699-0.17,0.11-0.26c0.05-0.12,0.11-0.26,0.17-0.39l0.05-0.1
		c0.05-0.11,0.11-0.21,0.16-0.31l0.07-0.15l0.27-0.45c1.1-1.76,2.46-2.57,4.31-2.57c0.93,0,1.89,0.2,2.91,0.41
		c0.1949,0.0406,0.4109,0.0765,0.6131,0.1177c-0.0384-0.0933-0.0615-0.1909-0.0615-0.2441
		c-0.0308-0.0712-0.0308-0.1779-0.0308-0.2847c0-0.1066,0-0.1778,0.0308-0.249c0.0616-0.1422,0.1233-0.071,0.2153,0
		c0.0616,0.0712,0.1537,0.0712,0.2153,0.0712s0.1232-0.0356,0.1232-0.0356s0,0,0.0308,0s0.0616-0.0356,0.0616-0.0356
		c0.0616-0.0356,0.0925-0.0356,0.1541-0.071c0.0308,0,0.0308,0,0.0616-0.0356c0.0616,0,0.092-0.0356,0.1537-0.0356
		c0,0,0.0308-0.0356,0.0616-0.0356c0.0612,0,0.092-0.0356,0.1537-0.0356c0,0,0.0308,0,0.0616-0.0356
		c0.0616,0,0.0924,0,0.1541-0.0354c0.0308,0,0.0616,0,0.0616,0c0.0616,0,0.0924-0.0356,0.1541-0.0356h0.092
		c0.0308,0,0.0925-0.0356,0.1233-0.0356h0.092c0.0616,0,0.1232-0.0356,0.1541-0.0356c0.0925-0.0712,0.1541-0.2134,0.2773-0.4625
		c0.1229-0.2846,0.3074-0.0712,0.3074-0.0712c-0.2153,0-0.1845,0.2846-0.1845,0.2846c0.3381-0.0932,0.6425-0.2051,0.9288-0.3253
		c-1.4429-0.8692-2.8958-2.3428-2.912-4.7617c0,0,0.4927,1.494,1.8782,1.7075c0,0,0.4129,1.4181,2.0842,2.5049
		c1.6713-1.0868,2.0841-2.5049,2.0841-2.5049c1.3855-0.2134,1.8782-1.7075,1.8782-1.7075c-0.0162,2.4188-1.4691,3.8925-2.912,4.7617
		c0.2863,0.1202,0.5907,0.2321,0.9288,0.3253c0,0,0.0308-0.2846-0.1845-0.2846c0,0,0.1845-0.2134,0.3074,0.0712
		c0.1232,0.2491,0.1849,0.3913,0.2773,0.4625c0.0308,0,0.0925,0.0356,0.1541,0.0356h0.092c0.0308,0,0.0925,0.0356,0.1233,0.0356
		h0.092c0.0616,0,0.0925,0.0356,0.1541,0.0356c0,0,0.0308,0,0.0616,0c0.0616,0.0354,0.0924,0.0354,0.1541,0.0354
		c0.0308,0.0356,0.0616,0.0356,0.0616,0.0356c0.0616,0,0.0924,0.0356,0.1537,0.0356c0.0308,0,0.0616,0.0356,0.0616,0.0356
		c0.0616,0,0.092,0.0356,0.1537,0.0356c0.0308,0.0356,0.0308,0.0356,0.0616,0.0356c0.0616,0.0354,0.0924,0.0354,0.1541,0.071
		c0,0,0.0308,0.0356,0.0616,0.0356c0.0308,0,0.0308,0,0.0308,0s0.0616,0.0356,0.1233,0.0356c0.0616,0,0.1537,0,0.2153-0.0712
		c0.092-0.071,0.1537-0.1422,0.2153,0c0.0308,0.0712,0.0308,0.1425,0.0308,0.249c0,0.1068,0,0.2134-0.0308,0.2847
		c0,0.0515-0.0224,0.1448-0.0585,0.2353c0.2759-0.0581,0.5648-0.111,0.8304-0.1689c1.05-0.2401,2.05-0.47,3.03-0.47
		c1.83,0,3.19,0.8,4.29,2.5c0.16,0.24,0.31,0.51,0.46,0.81h0.01l0.28,0.58c0.04,0.09,0.09,0.19,0.13,0.29
		c2.1-0.3,6.71-1.12,7.32-2.74C46.9914,15.7161,44.1114,14.2161,44.1114,14.2161z" fill="#0d8df1" class="color000000 svgShape"></path><path d="M21.1184 17.2422c.0925.1066.1537 0 .2153-.1425v-.005c-.1248-.0235-.2475-.0461-.3692-.0709C21.003 17.1174 21.0569 17.2066 21.1184 17.2422zM29.4789 17.0998c.0616.1425.1229.2491.2153.1425.0635-.0368.118-.1304.1567-.2272-.1237.0261-.246.051-.3721.0757V17.0998z" fill="#0d8df1" class="color000000 svgShape"></path></svg>